<svg width="24" height="24" viewBox="0 0 24 24" fill="none" xmlns="http://www.w3.org/2000/svg">
<path fill-rule="evenodd" clip-rule="evenodd" d="M12 2.25C6.61522 2.25 2.25 6.61522 2.25 12C2.25 17.3848 6.61522 21.75 12 21.75C17.3848 21.75 21.75 17.3848 21.75 12C21.7443 6.61758 17.3824 2.25568 12 2.25ZM6.945 18.5156C8.0476 16.7912 9.9532 15.7478 12 15.7478C14.0468 15.7478 15.9524 16.7912 17.055 18.5156C14.0817 20.828 9.91832 20.828 6.945 18.5156ZM9 11.25C9 9.59315 10.3431 8.25 12 8.25C13.6569 8.25 15 9.59315 15 11.25C15 12.9069 13.6569 14.25 12 14.25C10.3431 14.25 9 12.9069 9 11.25ZM18.165 17.4759C17.3285 16.2638 16.1524 15.3261 14.7844 14.7806C16.2906 13.5943 16.8797 11.5838 16.2519 9.77207C15.6242 7.96039 13.9174 6.74548 12 6.74548C10.0826 6.74548 8.37584 7.96039 7.74805 9.77207C7.12026 11.5838 7.70936 13.5943 9.21562 14.7806C7.84764 15.3261 6.67147 16.2638 5.835 17.4759C2.89046 14.1647 3.08752 9.11881 6.28133 6.0473C9.47513 2.97579 14.5249 2.97579 17.7187 6.0473C20.9125 9.11881 21.1095 14.1647 18.165 17.4759Z" fill="#121712"/>
</svg>
