<svg width="24" height="24" viewBox="0 0 24 24" fill="none" xmlns="http://www.w3.org/2000/svg">
<g clip-path="url(#clip0_36_1273)">
<path fill-rule="evenodd" clip-rule="evenodd" d="M19.5 3H4.5C3.67157 3 3 3.67157 3 4.5V19.5C3 20.3284 3.67157 21 4.5 21H19.5C20.3284 21 21 20.3284 21 19.5V4.5C21 3.67157 20.3284 3 19.5 3ZM19.5 4.5V14.25H16.8094C16.4117 14.249 16.0301 14.4073 15.75 14.6897L13.9397 16.5H10.0603L8.25 14.6897C7.96966 14.4071 7.58773 14.2487 7.18969 14.25H4.5V4.5H19.5ZM19.5 19.5H4.5V15.75H7.18969L9 17.5603C9.28034 17.8429 9.66227 18.0013 10.0603 18H13.9397C14.3377 18.0013 14.7197 17.8429 15 17.5603L16.8103 15.75H19.5V19.5Z" fill="white"/>
</g>
<defs>
<clipPath id="clip0_36_1273">
<rect width="24" height="24" fill="white"/>
</clipPath>
</defs>
</svg>
