<svg width="24" height="24" viewBox="0 0 24 24" fill="none" xmlns="http://www.w3.org/2000/svg">
<g clip-path="url(#clip0_36_1266)">
<path fill-rule="evenodd" clip-rule="evenodd" d="M23.2116 5.73938L18.3591 3.09375C18.2491 3.03292 18.1257 3.00068 18 3H15C14.5858 3 14.25 3.33579 14.25 3.75C14.25 4.99264 13.2426 6 12 6C10.7574 6 9.75 4.99264 9.75 3.75C9.75 3.33579 9.41421 3 9 3H6C5.87403 3.00052 5.75022 3.03276 5.64 3.09375L0.788437 5.73938C0.0683616 6.11992 -0.207973 7.0114 0.170625 7.7325L1.97719 11.1834C2.24494 11.6892 2.77183 12.0039 3.34406 12H5.25V19.5C5.25 20.3284 5.92157 21 6.75 21H17.25C18.0784 21 18.75 20.3284 18.75 19.5V12H20.6569C21.2291 12.0039 21.756 11.6892 22.0238 11.1834L23.8303 7.7325C24.2088 7.01115 23.932 6.11958 23.2116 5.73938ZM3.34406 10.5C3.33021 10.5007 3.31657 10.4963 3.30562 10.4878L1.50844 7.05562L5.25 5.01375V10.5H3.34406ZM17.25 19.5H6.75V4.5H8.325C8.68173 6.24557 10.2174 7.49916 11.9991 7.49916C13.7807 7.49916 15.3164 6.24557 15.6731 4.5H17.25V19.5ZM20.6953 10.4869C20.6848 10.4963 20.6709 10.5011 20.6569 10.5H18.75V5.01375L22.4925 7.05562L20.6953 10.4869Z" fill="#121712"/>
</g>
<defs>
<clipPath id="clip0_36_1266">
<rect width="24" height="24" fill="white"/>
</clipPath>
</defs>
</svg>
